<?xml version="1.0" encoding="UTF-8"?>
<svg width="64px" height="26px" viewBox="0 0 64 26" version="1.1" xmlns="http://www.w3.org/2000/svg" xmlns:xlink="http://www.w3.org/1999/xlink">
    <title>Group 3</title>
    <g id="Landing" stroke="none" stroke-width="1" fill="none" fill-rule="evenodd">
        <g id="Artboard" transform="translate(-380.000000, -65.000000)">
            <g id="header">
                <g id="Group-3" transform="translate(380.000000, 65.000000)">
                    <g id="Group" transform="translate(0.000000, 2.000000)">
                        <rect id="Rectangle" fill="#5A82F5" x="2.08695652" y="2.08695652" width="6.26086957" height="19.826087" rx="3.13043478"></rect>
                        <path d="M18.7826087,1.04347826 L18.7826087,1.04347826 L18.7826087,1.04347826 C20.5115001,1.04347826 21.9130435,2.44502165 21.9130435,4.17391304 L21.9130435,6.26086957 C21.9130435,7.98976096 20.5115001,9.39130435 18.7826087,9.39130435 C17.0537173,9.39130435 15.6521739,7.98976096 15.6521739,6.26086957 L15.6521739,4.17391304 C15.6521739,2.44502165 17.0537173,1.04347826 18.7826087,1.04347826 Z" id="Rectangle" fill="#FBBC28"></path>
                        <path d="M12.110119,-1.41465916 C13.6721382,-1.43891561 14.9580687,-0.192312603 14.9823252,1.36970659 C14.98279,1.39964085 14.9827796,1.42958059 14.9822939,1.45951451 L14.6552475,21.6167744 C14.6288469,23.2439545 13.315534,24.5563541 11.6883359,24.5816227 C10.1263167,24.6058792 8.84038623,23.3592762 8.81612977,21.797257 C8.81566492,21.7673227 8.81567534,21.737383 8.81616101,21.7074491 L9.14320745,1.55018916 C9.16960804,-0.0769909466 10.4829209,-1.38939054 12.110119,-1.41465916 Z" id="Rectangle-Copy-3" fill="#F9714A" transform="translate(11.899227, 11.583482) rotate(-45.000000) translate(-11.899227, -11.583482) "></path>
                    </g>
                    <text id="RNA" font-family="NotoSansCJKkr-Bold, Noto Sans CJK KR" font-size="18" font-weight="bold" letter-spacing="-0.24" fill="#1E1E1E">
                        <tspan x="26.712" y="21">RNA</tspan>
                    </text>
                </g>
            </g>
        </g>
    </g>
</svg>