<?xml version="1.0" encoding="UTF-8"?>
<svg width="776px" height="780px" viewBox="0 0 776 780" version="1.1" xmlns="http://www.w3.org/2000/svg" xmlns:xlink="http://www.w3.org/1999/xlink">
    <title>Pattern</title>
    <g id="Login" stroke="none" stroke-width="1" fill="none" fill-rule="evenodd">
        <g id="Desktop-HD" transform="translate(-1033.000000, -122.000000)">
            <g id="Pattern" transform="translate(1033.000000, 122.000000)">
                <g id="Stacked-Group" transform="translate(4.000000, 0.000000)">
                    <g id="Group" transform="translate(536.000000, 2.000000)">
                        <circle id="Oval-Copy-2" fill="#FBBC28" cx="18.893645" cy="19.749477" r="13"></circle>
                        <circle id="Oval-Copy-3" fill="#4A80F6" cx="18.893645" cy="85.749477" r="13"></circle>
                        <rect id="Rectangle" fill="#5A82F5" x="6" y="7" width="26" height="92" rx="13"></rect>
                        <circle id="Oval-Copy-5" fill="#FBBC28" cx="84.893645" cy="19.749477" r="13"></circle>
                        <path d="M85,7 L85,7 L85,7 C92.1797017,7 98,12.8202983 98,20 L98,32 C98,39.1797017 92.1797017,45 85,45 C77.8202983,45 72,39.1797017 72,32 L72,20 C72,12.8202983 77.8202983,7 85,7 Z" id="Rectangle" fill="#FBBC28"></path>
                        <circle id="Oval-Copy-6" fill="#F9714A" cx="84.893645" cy="86" r="13"></circle>
                        <rect id="Rectangle-Copy-3" fill="#F9714A" transform="translate(50.585786, 51.085786) rotate(-45.000000) translate(-50.585786, -51.085786) " x="37.5857864" y="-7.41421356" width="26" height="117" rx="13"></rect>
                    </g>
                    <g id="Group-Copy" transform="translate(668.000000, 0.000000)">
                        <circle id="Oval-Copy-2" fill="#F9714A" cx="18.893645" cy="19.749477" r="13"></circle>
                        <circle id="Oval-Copy-3" fill="#5A82F5" cx="18.893645" cy="85.749477" r="13"></circle>
                        <circle id="Oval-Copy-5" fill="#FBBC28" cx="84.893645" cy="19.749477" r="13"></circle>
                        <circle id="Oval-Copy-7" fill="#FBBC28" cx="84.893645" cy="86" r="13"></circle>
                        <path d="M85,7 L85,7 L85,7 C92.1797017,7 98,12.8202983 98,20 L98,86 C98,93.1797017 92.1797017,99 85,99 C77.8202983,99 72,93.1797017 72,86 L72,20 C72,12.8202983 77.8202983,7 85,7 Z" id="Rectangle" fill="#F9714A"></path>
                    </g>
                    <g id="Group-Copy-7" transform="translate(402.000000, 0.000000)">
                        <circle id="Oval-Copy-2" fill="#F9714A" cx="18.893645" cy="19.749477" r="13"></circle>
                        <circle id="Oval-Copy-3" fill="#4A80F6" cx="18.893645" cy="85.749477" r="13"></circle>
                        <rect id="Rectangle" fill="#5A82F5" x="6" y="49" width="26" height="50" rx="13"></rect>
                        <circle id="Oval-Copy-5" fill="#FBBC28" cx="84.893645" cy="19.749477" r="13"></circle>
                        <circle id="Oval-Copy-7" fill="#FBBC28" cx="84.893645" cy="86" r="13"></circle>
                        <path d="M85,7 L85,7 L85,7 C92.1797017,7 98,12.8202983 98,20 L98,44 C98,51.1797017 92.1797017,57 85,57 C77.8202983,57 72,51.1797017 72,44 L72,20 C72,12.8202983 77.8202983,7 85,7 Z" id="Rectangle" fill="#FBBC28"></path>
                    </g>
                    <g id="Group-Copy-10" transform="translate(268.000000, 0.000000)">
                        <circle id="Oval-Copy-2" fill="#F9714A" cx="18.893645" cy="19.749477" r="13"></circle>
                        <circle id="Oval-Copy-3" fill="#5A82F5" cx="18.893645" cy="85.749477" r="13"></circle>
                        <circle id="Oval-Copy-5" fill="#FBBC28" cx="84.893645" cy="19.749477" r="13"></circle>
                        <circle id="Oval-Copy-7" fill="#F9714A" cx="84.893645" cy="86" r="13"></circle>
                        <rect id="Rectangle-Copy-3" fill="#F9714A" transform="translate(65.454058, 66.954058) rotate(-45.000000) translate(-65.454058, -66.954058) " x="52.4540585" y="26.9540585" width="26" height="80" rx="13"></rect>
                    </g>
                    <g id="Group-Copy-9" transform="translate(134.000000, 0.000000)">
                        <circle id="Oval-Copy-2" fill="#F9714A" cx="18.893645" cy="19.749477" r="13"></circle>
                        <circle id="Oval-Copy-3" fill="#5A82F5" cx="18.893645" cy="85.749477" r="13"></circle>
                        <circle id="Oval-Copy-5" fill="#FBBC28" cx="84.893645" cy="19.749477" r="13"></circle>
                        <rect id="Rectangle-Copy-3" fill="#F9714A" transform="translate(27.958369, 28.458369) rotate(-45.000000) translate(-27.958369, -28.458369) " x="14.9583694" y="1.95836944" width="26" height="53" rx="13"></rect>
                        <path d="M85,7 L85,7 L85,7 C92.1797017,7 98,12.8202983 98,20 L98,86 C98,93.1797017 92.1797017,99 85,99 C77.8202983,99 72,93.1797017 72,86 L72,20 C72,12.8202983 77.8202983,7 85,7 Z" id="Rectangle" fill="#FBBC28"></path>
                    </g>
                    <g id="Group-Copy-8">
                        <circle id="Oval-Copy-2" fill="#F9714A" cx="18.893645" cy="19.749477" r="13"></circle>
                        <circle id="Oval-Copy-3" fill="#4A80F6" cx="18.893645" cy="85.749477" r="13"></circle>
                        <rect id="Rectangle" fill="#5A82F5" x="6" y="57" width="26" height="42" rx="13"></rect>
                        <circle id="Oval-Copy-5" fill="#FBBC28" cx="84.893645" cy="19.749477" r="13"></circle>
                        <circle id="Oval-Copy-7" fill="#F9714A" cx="84.893645" cy="86" r="13"></circle>
                        <rect id="Rectangle-Copy-3" fill="#F9714A" transform="translate(38.211418, 38.711418) rotate(-45.000000) translate(-38.211418, -38.711418) " x="25.2114178" y="-2.28858223" width="26" height="82" rx="13"></rect>
                    </g>
                </g>
                <g id="Stacked-Group-Copy" transform="translate(0.000000, 135.000000)">
                    <g id="Group" transform="translate(268.000000, 2.000000)">
                        <circle id="Oval-Copy-2" fill="#FBBC28" cx="18.893645" cy="19.749477" r="13"></circle>
                        <circle id="Oval-Copy-3" fill="#4A80F6" cx="18.893645" cy="85.749477" r="13"></circle>
                        <rect id="Rectangle" fill="#5A82F5" x="6" y="7" width="26" height="92" rx="13"></rect>
                        <circle id="Oval-Copy-5" fill="#FBBC28" cx="84.893645" cy="19.749477" r="13"></circle>
                        <path d="M85,7 L85,7 L85,7 C92.1797017,7 98,12.8202983 98,20 L98,32 C98,39.1797017 92.1797017,45 85,45 C77.8202983,45 72,39.1797017 72,32 L72,20 C72,12.8202983 77.8202983,7 85,7 Z" id="Rectangle" fill="#FBBC28"></path>
                        <circle id="Oval-Copy-6" fill="#F9714A" cx="84.893645" cy="86" r="13"></circle>
                        <rect id="Rectangle-Copy-3" fill="#F9714A" transform="translate(50.585786, 51.085786) rotate(-45.000000) translate(-50.585786, -51.085786) " x="37.5857864" y="-7.41421356" width="26" height="117" rx="13"></rect>
                    </g>
                    <g id="Group-Copy">
                        <circle id="Oval-Copy-2" fill="#F9714A" cx="18.893645" cy="19.749477" r="13"></circle>
                        <circle id="Oval-Copy-3" fill="#5A82F5" cx="18.893645" cy="85.749477" r="13"></circle>
                        <circle id="Oval-Copy-5" fill="#FBBC28" cx="84.893645" cy="19.749477" r="13"></circle>
                        <circle id="Oval-Copy-7" fill="#FBBC28" cx="84.893645" cy="86" r="13"></circle>
                        <path d="M85,7 L85,7 L85,7 C92.1797017,7 98,12.8202983 98,20 L98,86 C98,93.1797017 92.1797017,99 85,99 C77.8202983,99 72,93.1797017 72,86 L72,20 C72,12.8202983 77.8202983,7 85,7 Z" id="Rectangle" fill="#FBBC28"></path>
                    </g>
                    <g id="Group-Copy-7" transform="translate(668.000000, 0.000000)">
                        <circle id="Oval-Copy-2" fill="#F9714A" cx="18.893645" cy="19.749477" r="13"></circle>
                        <circle id="Oval-Copy-3" fill="#4A80F6" cx="18.893645" cy="85.749477" r="13"></circle>
                        <rect id="Rectangle" fill="#5A82F5" x="6" y="57" width="26" height="42" rx="13"></rect>
                        <circle id="Oval-Copy-5" fill="#FBBC28" cx="84.893645" cy="19.749477" r="13"></circle>
                        <circle id="Oval-Copy-7" fill="#FBBC28" cx="84.893645" cy="86" r="13"></circle>
                        <rect id="Rectangle-Copy-4" fill="#F9714A" transform="translate(51.646447, 52.146447) rotate(-45.000000) translate(-51.646447, -52.146447) " x="38.6464466" y="-7.85355339" width="26" height="120" rx="13"></rect>
                        <path d="M85,7 L85,7 L85,7 C92.1797017,7 98,12.8202983 98,20 L98,86 C98,93.1797017 92.1797017,99 85,99 C77.8202983,99 72,93.1797017 72,86 L72,20 C72,12.8202983 77.8202983,7 85,7 Z" id="Rectangle" fill="#FBBC28"></path>
                    </g>
                    <g id="Group-Copy-10" transform="translate(400.000000, 0.000000)">
                        <circle id="Oval-Copy-2" fill="#F9714A" cx="18.893645" cy="19.749477" r="13"></circle>
                        <circle id="Oval-Copy-3" fill="#5A82F5" cx="18.893645" cy="85.749477" r="13"></circle>
                        <rect id="Rectangle" fill="#4A80F6" x="6" y="7" width="26" height="92" rx="13"></rect>
                        <circle id="Oval-Copy-5" fill="#FBBC28" cx="84.893645" cy="19.749477" r="13"></circle>
                        <circle id="Oval-Copy-7" fill="#F9714A" cx="84.893645" cy="86" r="13"></circle>
                    </g>
                    <g id="Group-Copy-9" transform="translate(134.000000, 0.000000)">
                        <circle id="Oval-Copy-2" fill="#F9714A" cx="18.893645" cy="19.749477" r="13"></circle>
                        <circle id="Oval-Copy-3" fill="#5A82F5" cx="18.893645" cy="85.749477" r="13"></circle>
                        <circle id="Oval-Copy-5" fill="#FBBC28" cx="84.893645" cy="19.749477" r="13"></circle>
                        <circle id="Oval-Copy-7" fill="#F9714A" cx="84.893645" cy="86" r="13"></circle>
                    </g>
                    <g id="Group-Copy-8" transform="translate(534.000000, 0.000000)">
                        <circle id="Oval-Copy-2" fill="#F9714A" cx="18.893645" cy="19.749477" r="13"></circle>
                        <circle id="Oval-Copy-3" fill="#4A80F6" cx="18.893645" cy="85.749477" r="13"></circle>
                        <rect id="Rectangle" fill="#5A82F5" x="6" y="57" width="26" height="42" rx="13"></rect>
                        <circle id="Oval-Copy-5" fill="#FBBC28" cx="84.893645" cy="19.749477" r="13"></circle>
                        <circle id="Oval-Copy-7" fill="#F9714A" cx="84.893645" cy="86" r="13"></circle>
                        <path d="M85,9 L85,9 L85,9 C92.1797017,9 98,14.8202983 98,22 L98,44 C98,51.1797017 92.1797017,57 85,57 C77.8202983,57 72,51.1797017 72,44 L72,22 C72,14.8202983 77.8202983,9 85,9 Z" id="Rectangle" fill="#FBBC28"></path>
                    </g>
                </g>
                <g id="Stacked-Group-Copy-2" transform="translate(0.000000, 270.000000)">
                    <g id="Group" transform="translate(402.000000, 2.000000)">
                        <circle id="Oval-Copy-2" fill="#F9714A" cx="18.893645" cy="19.749477" r="13"></circle>
                        <circle id="Oval-Copy-3" fill="#4A80F6" cx="18.893645" cy="85.749477" r="13"></circle>
                        <circle id="Oval-Copy-5" fill="#FBBC28" cx="84.893645" cy="19.749477" r="13"></circle>
                        <circle id="Oval-Copy-6" fill="#F9714A" cx="84.893645" cy="86" r="13"></circle>
                    </g>
                    <g id="Group-Copy">
                        <circle id="Oval-Copy-2" fill="#F9714A" cx="18.893645" cy="19.749477" r="13"></circle>
                        <circle id="Oval-Copy-3" fill="#5A82F5" cx="18.893645" cy="85.749477" r="13"></circle>
                        <circle id="Oval-Copy-5" fill="#FBBC28" cx="84.893645" cy="19.749477" r="13"></circle>
                        <circle id="Oval-Copy-7" fill="#FBBC28" cx="84.893645" cy="86" r="13"></circle>
                        <rect id="Rectangle-Copy-5" fill="#F9714A" transform="translate(37.504311, 38.004311) rotate(-45.000000) translate(-37.504311, -38.004311) " x="24.504311" y="-1.99568901" width="26" height="80" rx="13"></rect>
                    </g>
                    <g id="Group-Copy-7" transform="translate(668.000000, 0.000000)">
                        <circle id="Oval-Copy-2" fill="#F9714A" cx="18.893645" cy="19.749477" r="13"></circle>
                        <circle id="Oval-Copy-3" fill="#4A80F6" cx="18.893645" cy="85.749477" r="13"></circle>
                        <rect id="Rectangle" fill="#5A82F5" x="6" y="49" width="26" height="50" rx="13"></rect>
                        <circle id="Oval-Copy-5" fill="#FBBC28" cx="84.893645" cy="19.749477" r="13"></circle>
                        <circle id="Oval-Copy-7" fill="#FBBC28" cx="84.893645" cy="86" r="13"></circle>
                        <path d="M85,7 L85,7 L85,7 C92.1797017,7 98,12.8202983 98,20 L98,44 C98,51.1797017 92.1797017,57 85,57 C77.8202983,57 72,51.1797017 72,44 L72,20 C72,12.8202983 77.8202983,7 85,7 Z" id="Rectangle" fill="#F9714A"></path>
                    </g>
                    <g id="Group-Copy-10" transform="translate(268.000000, 0.000000)">
                        <circle id="Oval-Copy-2" fill="#F9714A" cx="18.893645" cy="19.749477" r="13"></circle>
                        <circle id="Oval-Copy-3" fill="#5A82F5" cx="18.893645" cy="85.749477" r="13"></circle>
                        <circle id="Oval-Copy-5" fill="#FBBC28" cx="84.893645" cy="19.749477" r="13"></circle>
                        <circle id="Oval-Copy-7" fill="#FBBC28" cx="84.893645" cy="86" r="13"></circle>
                        <rect id="Rectangle-Copy-3" fill="#F9714A" transform="translate(35.525126, 36.525126) rotate(-45.000000) translate(-35.525126, -36.525126) " x="22.5251263" y="0.0251262658" width="26" height="73" rx="13"></rect>
                    </g>
                    <g id="Group-Copy-9" transform="translate(134.000000, 0.000000)">
                        <circle id="Oval-Copy-2" fill="#4A80F6" cx="18.893645" cy="19.749477" r="13"></circle>
                        <circle id="Oval-Copy-3" fill="#5A82F5" cx="18.893645" cy="85.749477" r="13"></circle>
                        <circle id="Oval-Copy-5" fill="#FBBC28" cx="84.893645" cy="19.749477" r="13"></circle>
                        <circle id="Oval-Copy-7" fill="#F9714A" cx="84.893645" cy="86" r="13"></circle>
                    </g>
                    <g id="Group-Copy-9" transform="translate(534.000000, 0.000000)">
                        <circle id="Oval-Copy-2" fill="#F9714A" cx="18.893645" cy="19.749477" r="13"></circle>
                        <circle id="Oval-Copy-3" fill="#4A80F6" cx="18.893645" cy="85.749477" r="13"></circle>
                        <rect id="Rectangle" fill="#5A82F5" x="6" y="7" width="26" height="92" rx="13"></rect>
                        <circle id="Oval-Copy-5" fill="#FBBC28" cx="84.893645" cy="19.749477" r="13"></circle>
                        <circle id="Oval-Copy-7" fill="#F9714A" cx="84.893645" cy="86" r="13"></circle>
                        <rect id="Rectangle-Copy-3" fill="#F9714A" transform="translate(34.121320, 34.621320) rotate(-45.000000) translate(-34.121320, -34.621320) " x="21.1213203" y="0.121320344" width="26" height="69" rx="13"></rect>
                        <path d="M85,50 L85,50 L85,50 C92.1797017,50 98,55.8202983 98,63 L98,86 C98,93.1797017 92.1797017,99 85,99 C77.8202983,99 72,93.1797017 72,86 L72,63 C72,55.8202983 77.8202983,50 85,50 Z" id="Rectangle" fill="#FBBC28"></path>
                    </g>
                </g>
                <g id="Stacked-Group-Copy-3" transform="translate(0.000000, 405.000000)">
                    <g id="Group" transform="translate(670.000000, 2.000000)">
                        <circle id="Oval-Copy-2" fill="#FBBC28" cx="17" cy="18" r="13"></circle>
                        <circle id="Oval-Copy-3" fill="#4A80F6" cx="17" cy="84" r="13"></circle>
                        <circle id="Oval-Copy-5" fill="#FBBC28" cx="83" cy="18" r="13"></circle>
                        <circle id="Oval-Copy-6" fill="#F9714A" cx="83" cy="84" r="13"></circle>
                    </g>
                    <g id="Group-Copy" transform="translate(134.000000, 0.000000)">
                        <circle id="Oval-Copy-2" fill="#F9714A" cx="18.893645" cy="19.749477" r="13"></circle>
                        <circle id="Oval-Copy-3" fill="#5A82F5" cx="18.893645" cy="85.749477" r="13"></circle>
                        <circle id="Oval-Copy-5" fill="#FBBC28" cx="84.893645" cy="19.749477" r="13"></circle>
                        <circle id="Oval-Copy-7" fill="#FBBC28" cx="84.893645" cy="86" r="13"></circle>
                        <path d="M85,49 L85,49 L85,49 C92.1797017,49 98,54.8202983 98,62 L98,86 C98,93.1797017 92.1797017,99 85,99 C77.8202983,99 72,93.1797017 72,86 L72,62 C72,54.8202983 77.8202983,49 85,49 Z" id="Rectangle" fill="#FBBC28"></path>
                    </g>
                    <g id="Group-Copy-7" transform="translate(536.000000, 0.000000)">
                        <circle id="Oval-Copy-2" fill="#F9714A" cx="18.893645" cy="19.749477" r="13"></circle>
                        <circle id="Oval-Copy-3" fill="#4A80F6" cx="18.893645" cy="85.749477" r="13"></circle>
                        <circle id="Oval-Copy-5" fill="#FBBC28" cx="84.893645" cy="19.749477" r="13"></circle>
                        <circle id="Oval-Copy-7" fill="#F9714A" cx="84.893645" cy="86" r="13"></circle>
                        <path d="M85,48 L85,48 L85,48 C92.1797017,48 98,53.8202983 98,61 L98,85 C98,92.1797017 92.1797017,98 85,98 C77.8202983,98 72,92.1797017 72,85 L72,61 C72,53.8202983 77.8202983,48 85,48 Z" id="Rectangle" fill="#F9714A"></path>
                    </g>
                    <g id="Group-Copy-10" transform="translate(268.000000, 0.000000)">
                        <circle id="Oval-Copy-2" fill="#F9714A" cx="18.893645" cy="19.749477" r="13"></circle>
                        <circle id="Oval-Copy-3" fill="#5A82F5" cx="18.893645" cy="85.749477" r="13"></circle>
                        <circle id="Oval-Copy-5" fill="#FBBC28" cx="84.893645" cy="19.749477" r="13"></circle>
                        <circle id="Oval-Copy-7" fill="#F9714A" cx="84.893645" cy="86" r="13"></circle>
                    </g>
                    <g id="Group-Copy-9">
                        <circle id="Oval-Copy-2" fill="#F9714A" cx="18.893645" cy="19.749477" r="13"></circle>
                        <circle id="Oval-Copy-3" fill="#4A80F6" cx="18.893645" cy="85.749477" r="13"></circle>
                        <rect id="Rectangle" fill="#5A82F5" x="6" y="7" width="26" height="92" rx="13"></rect>
                        <circle id="Oval-Copy-5" fill="#FBBC28" cx="84.893645" cy="19.749477" r="13"></circle>
                        <circle id="Oval-Copy-7" fill="#F9714A" cx="84.893645" cy="86" r="13"></circle>
                        <rect id="Rectangle-Copy-3" fill="#F9714A" transform="translate(34.121320, 34.621320) rotate(-45.000000) translate(-34.121320, -34.621320) " x="21.1213203" y="0.121320344" width="26" height="69" rx="13"></rect>
                        <path d="M85,50 L85,50 L85,50 C92.1797017,50 98,55.8202983 98,63 L98,86 C98,93.1797017 92.1797017,99 85,99 C77.8202983,99 72,93.1797017 72,86 L72,63 C72,55.8202983 77.8202983,50 85,50 Z" id="Rectangle" fill="#FBBC28"></path>
                    </g>
                    <g id="Group-Copy-8" transform="translate(402.000000, 0.000000)">
                        <circle id="Oval-Copy-2" fill="#F9714A" cx="18.893645" cy="19.749477" r="13"></circle>
                        <circle id="Oval-Copy-3" fill="#4A80F6" cx="18.893645" cy="85.749477" r="13"></circle>
                        <circle id="Oval-Copy-5" fill="#FBBC28" cx="84.893645" cy="19.749477" r="13"></circle>
                        <circle id="Oval-Copy-7" fill="#F9714A" cx="84.893645" cy="86" r="13"></circle>
                        <rect id="Rectangle-Copy-3" fill="#F9714A" transform="translate(68.889087, 69.889087) rotate(-45.000000) translate(-68.889087, -69.889087) " x="55.8890873" y="34.3890873" width="26" height="71" rx="13"></rect>
                    </g>
                </g>
                <g id="Stacked-Group-Copy-4" transform="translate(0.000000, 540.000000)">
                    <g id="Group-Copy">
                        <rect id="Rectangle" fill="#5A82F5" x="6" y="7" width="26" height="91" rx="13"></rect>
                        <circle id="Oval-Copy-3" fill="#5A82F5" cx="18.893645" cy="85.749477" r="13"></circle>
                        <circle id="Oval-Copy-5" fill="#FBBC28" cx="84.893645" cy="19.749477" r="13"></circle>
                        <circle id="Oval-Copy-7" fill="#F9714A" cx="84.893645" cy="86" r="13"></circle>
                    </g>
                    <g id="Group-Copy-7" transform="translate(536.000000, 0.000000)">
                        <circle id="Oval-Copy-2" fill="#4A80F6" cx="18.893645" cy="19.749477" r="13"></circle>
                        <circle id="Oval-Copy-3" fill="#4A80F6" cx="18.893645" cy="85.749477" r="13"></circle>
                        <circle id="Oval-Copy-5" fill="#F9714A" cx="84.893645" cy="19.749477" r="13"></circle>
                        <circle id="Oval-Copy-7" fill="#FBBC28" cx="84.893645" cy="86" r="13"></circle>
                        <rect id="Rectangle-Copy-3" fill="#FBBC28" transform="translate(73.585786, 75.085786) rotate(-45.000000) translate(-73.585786, -75.085786) " x="60.5857864" y="46.5857864" width="26" height="57" rx="13"></rect>
                    </g>
                    <g id="Group-Copy-10" transform="translate(670.000000, 0.000000)">
                        <circle id="Oval-Copy-2" fill="#F9714A" cx="18.893645" cy="19.749477" r="13"></circle>
                        <circle id="Oval-Copy-3" fill="#5A82F5" cx="18.893645" cy="85.749477" r="13"></circle>
                        <circle id="Oval-Copy-5" fill="#FBBC28" cx="84.893645" cy="19.749477" r="13"></circle>
                        <circle id="Oval-Copy-7" fill="#F9714A" cx="84.893645" cy="86" r="13"></circle>
                        <path d="M85,7 L85,7 L85,7 C92.1797017,7 98,12.8202983 98,20 L98,79 C98,86.1797017 92.1797017,92 85,92 C77.8202983,92 72,86.1797017 72,79 L72,20 C72,12.8202983 77.8202983,7 85,7 Z" id="Rectangle" fill="#F9714A"></path>
                    </g>
                    <g id="Group-Copy-11" transform="translate(268.000000, 0.000000)">
                        <circle id="Oval-Copy-2" fill="#F9714A" cx="18.893645" cy="19.749477" r="13"></circle>
                        <circle id="Oval-Copy-3" fill="#5A82F5" cx="18.893645" cy="85.749477" r="13"></circle>
                        <circle id="Oval-Copy-5" fill="#FBBC28" cx="84.893645" cy="19.749477" r="13"></circle>
                        <circle id="Oval-Copy-7" fill="#F9714A" cx="84.893645" cy="86" r="13"></circle>
                        <path d="M85,7 L85,7 L85,7 C92.1797017,7 98,12.8202983 98,20 L98,79 C98,86.1797017 92.1797017,92 85,92 C77.8202983,92 72,86.1797017 72,79 L72,20 C72,12.8202983 77.8202983,7 85,7 Z" id="Rectangle" fill="#F9714A"></path>
                    </g>
                    <g id="Group-Copy-9" transform="translate(134.000000, 0.000000)">
                        <circle id="Oval-Copy-2" fill="#F9714A" cx="18.893645" cy="19.749477" r="13"></circle>
                        <circle id="Oval-Copy-3" fill="#4A80F6" cx="18.893645" cy="85.749477" r="13"></circle>
                        <rect id="Rectangle" fill="#5A82F5" x="6" y="57" width="26" height="42" rx="13"></rect>
                        <circle id="Oval-Copy-5" fill="#FBBC28" cx="84.893645" cy="19.749477" r="13"></circle>
                        <circle id="Oval-Copy-7" fill="#F9714A" cx="84.893645" cy="86" r="13"></circle>
                        <rect id="Rectangle-Copy-3" fill="#F9714A" transform="translate(32.000000, 32.500000) rotate(-45.000000) translate(-32.000000, -32.500000) " x="19" y="6" width="26" height="53" rx="13"></rect>
                        <path d="M85,7 L85,7 L85,7 C92.1797017,7 98,12.8202983 98,20 L98,35 C98,42.1797017 92.1797017,48 85,48 C77.8202983,48 72,42.1797017 72,35 L72,20 C72,12.8202983 77.8202983,7 85,7 Z" id="Rectangle" fill="#FBBC28"></path>
                    </g>
                    <g id="Group-Copy-8" transform="translate(402.000000, 0.000000)">
                        <circle id="Oval-Copy-2" fill="#F9714A" cx="18.893645" cy="19.749477" r="13"></circle>
                        <circle id="Oval-Copy-3" fill="#4A80F6" cx="18.893645" cy="85.749477" r="13"></circle>
                        <rect id="Rectangle" fill="#5A82F5" x="6" y="57" width="26" height="42" rx="13"></rect>
                        <circle id="Oval-Copy-5" fill="#FBBC28" cx="84.893645" cy="19.749477" r="13"></circle>
                        <rect id="Rectangle-Copy-4" fill="#F9714A" transform="translate(53.060660, 53.560660) rotate(-45.000000) translate(-53.060660, -53.560660) " x="40.0606602" y="-4.43933983" width="26" height="116" rx="13"></rect>
                        <path d="M85,7 L85,7 L85,7 C92.1797017,7 98,12.8202983 98,20 L98,86 C98,93.1797017 92.1797017,99 85,99 C77.8202983,99 72,93.1797017 72,86 L72,20 C72,12.8202983 77.8202983,7 85,7 Z" id="Rectangle" fill="#FBBC28"></path>
                    </g>
                </g>
                <g id="Stacked-Group-Copy-5" transform="translate(4.000000, 675.000000)">
                    <g id="Group" transform="translate(536.000000, 2.000000)">
                        <circle id="Oval-Copy-2" fill="#FBBC28" cx="18.893645" cy="19.749477" r="13"></circle>
                        <circle id="Oval-Copy-3" fill="#4A80F6" cx="18.893645" cy="85.749477" r="13"></circle>
                        <rect id="Rectangle" fill="#5A82F5" x="6" y="7" width="26" height="92" rx="13"></rect>
                        <circle id="Oval-Copy-5" fill="#FBBC28" cx="84.893645" cy="19.749477" r="13"></circle>
                        <path d="M85,7 L85,7 L85,7 C92.1797017,7 98,12.8202983 98,20 L98,32 C98,39.1797017 92.1797017,45 85,45 C77.8202983,45 72,39.1797017 72,32 L72,20 C72,12.8202983 77.8202983,7 85,7 Z" id="Rectangle" fill="#FBBC28"></path>
                        <circle id="Oval-Copy-6" fill="#F9714A" cx="84.893645" cy="86" r="13"></circle>
                        <rect id="Rectangle-Copy-3" fill="#F9714A" transform="translate(50.585786, 51.085786) rotate(-45.000000) translate(-50.585786, -51.085786) " x="37.5857864" y="-7.41421356" width="26" height="117" rx="13"></rect>
                    </g>
                    <g id="Group-Copy" transform="translate(134.000000, 0.000000)">
                        <circle id="Oval-Copy-2" fill="#F9714A" cx="18.893645" cy="19.749477" r="13"></circle>
                        <circle id="Oval-Copy-3" fill="#5A82F5" cx="18.893645" cy="85.749477" r="13"></circle>
                        <circle id="Oval-Copy-5" fill="#FBBC28" cx="84.893645" cy="19.749477" r="13"></circle>
                        <circle id="Oval-Copy-7" fill="#FBBC28" cx="84.893645" cy="86" r="13"></circle>
                        <rect id="Rectangle-Copy-5" fill="#F9714A" transform="translate(37.504311, 38.004311) rotate(-45.000000) translate(-37.504311, -38.004311) " x="24.504311" y="-1.99568901" width="26" height="80" rx="13"></rect>
                    </g>
                    <g id="Group-Copy">
                        <circle id="Oval-Copy-2" fill="#F9714A" cx="18.893645" cy="19.749477" r="13"></circle>
                        <rect id="Rectangle" fill="#5A82F5" x="6" y="45" width="26" height="50" rx="13"></rect>
                        <circle id="Oval-Copy-3" fill="#5A82F5" cx="18.893645" cy="85.749477" r="13"></circle>
                        <circle id="Oval-Copy-5" fill="#FBBC28" cx="84.893645" cy="19.749477" r="13"></circle>
                        <circle id="Oval-Copy-7" fill="#FBBC28" cx="84.893645" cy="86" r="13"></circle>
                        <path d="M85,7 L85,7 L85,7 C92.1797017,7 98,12.8202983 98,20 L98,86 C98,93.1797017 92.1797017,99 85,99 C77.8202983,99 72,93.1797017 72,86 L72,20 C72,12.8202983 77.8202983,7 85,7 Z" id="Rectangle" fill="#FBBC28"></path>
                    </g>
                    <g id="Group-Copy-7" transform="translate(402.000000, 0.000000)">
                        <circle id="Oval-Copy-2" fill="#F9714A" cx="18.893645" cy="19.749477" r="13"></circle>
                        <circle id="Oval-Copy-3" fill="#4A80F6" cx="18.893645" cy="85.749477" r="13"></circle>
                        <rect id="Rectangle" fill="#5A82F5" x="6" y="49" width="26" height="50" rx="13"></rect>
                        <circle id="Oval-Copy-5" fill="#FBBC28" cx="84.893645" cy="19.749477" r="13"></circle>
                        <circle id="Oval-Copy-7" fill="#FBBC28" cx="84.893645" cy="86" r="13"></circle>
                        <path d="M85,7 L85,7 L85,7 C92.1797017,7 98,12.8202983 98,20 L98,44 C98,51.1797017 92.1797017,57 85,57 C77.8202983,57 72,51.1797017 72,44 L72,20 C72,12.8202983 77.8202983,7 85,7 Z" id="Rectangle" fill="#FBBC28"></path>
                    </g>
                    <g id="Group-Copy-9" transform="translate(268.000000, 0.000000)">
                        <circle id="Oval-Copy-2" fill="#F9714A" cx="18.893645" cy="19.749477" r="13"></circle>
                        <circle id="Oval-Copy-3" fill="#4A80F6" cx="18.893645" cy="85.749477" r="13"></circle>
                        <circle id="Oval-Copy-5" fill="#FBBC28" cx="84.893645" cy="19.749477" r="13"></circle>
                        <circle id="Oval-Copy-7" fill="#F9714A" cx="84.893645" cy="86" r="13"></circle>
                        <rect id="Rectangle-Copy-3" fill="#F9714A" transform="translate(72.000000, 72.500000) rotate(-45.000000) translate(-72.000000, -72.500000) " x="59" y="46" width="26" height="53" rx="13"></rect>
                    </g>
                    <g id="Group-Copy-9" transform="translate(668.000000, 0.000000)">
                        <circle id="Oval-Copy-2" fill="#F9714A" cx="18.893645" cy="19.749477" r="13"></circle>
                        <circle id="Oval-Copy-3" fill="#5A82F5" cx="18.893645" cy="85.749477" r="13"></circle>
                        <circle id="Oval-Copy-5" fill="#FBBC28" cx="84.893645" cy="19.749477" r="13"></circle>
                        <rect id="Rectangle-Copy-3" fill="#F9714A" transform="translate(27.958369, 28.458369) rotate(-45.000000) translate(-27.958369, -28.458369) " x="14.9583694" y="1.95836944" width="26" height="53" rx="13"></rect>
                        <path d="M85,7 L85,7 L85,7 C92.1797017,7 98,12.8202983 98,20 L98,86 C98,93.1797017 92.1797017,99 85,99 C77.8202983,99 72,93.1797017 72,86 L72,20 C72,12.8202983 77.8202983,7 85,7 Z" id="Rectangle" fill="#FBBC28"></path>
                    </g>
                </g>
                <rect id="Rectangle" fill="#4A80F6" x="140" y="211" width="26" height="92" rx="13"></rect>
                <rect id="Rectangle-Copy-2" fill="#4A80F6" x="542" y="481" width="26" height="92" rx="13"></rect>
                <rect id="Rectangle" fill="#FBBC28" x="340" y="346" width="26" height="92" rx="13"></rect>
                <rect id="Rectangle-Copy" fill="#FBBC28" x="740" y="344" width="26" height="92" rx="13"></rect>
            </g>
        </g>
    </g>
</svg>